<svg width="230" height="218" viewBox="0 0 230 218" fill="none" xmlns="http://www.w3.org/2000/svg">
<path d="M1.4375 217C1.14583 217 0.833333 216.958 0.5 216.875C0.166667 216.771 0 216.521 0 216.125C0 215.958 0.03125 215.792 0.09375 215.625C0.15625 215.458 0.21875 215.302 0.28125 215.156C2.11458 211.198 3.92708 207.24 5.71875 203.281C7.53125 199.323 9.3125 195.344 11.0625 191.344C12.5 188.052 13.9271 184.76 15.3438 181.469C16.7604 178.156 18.2188 174.875 19.7188 171.625C19.7812 171.5 19.8854 171.438 20.0312 171.438C20.1771 171.438 20.2812 171.5 20.3438 171.625C21.8438 174.875 23.3021 178.156 24.7188 181.469C26.1354 184.76 27.5625 188.052 29 191.344C30.75 195.344 32.5208 199.323 34.3125 203.281C36.125 207.24 37.9479 211.198 39.7812 215.156C39.8438 215.302 39.9062 215.458 39.9688 215.625C40.0312 215.792 40.0625 215.958 40.0625 216.125C40.0625 216.521 39.8958 216.771 39.5625 216.875C39.2292 216.958 38.9167 217 38.625 217H32.3125C31.7917 217 31.3958 216.74 31.125 216.219C30.9583 215.885 30.8021 215.531 30.6562 215.156C30.5104 214.781 30.3646 214.427 30.2188 214.094C29.7604 213.052 29.3125 211.99 28.875 210.906C28.4583 209.823 28.0104 208.76 27.5312 207.719C27.4688 207.552 27.3542 207.469 27.1875 207.469H11.7188C11.5521 207.469 11.4375 207.552 11.375 207.719C10.875 208.76 10.3958 209.823 9.9375 210.906C9.5 211.99 9.04167 213.062 8.5625 214.125C8.41667 214.458 8.26042 214.812 8.09375 215.188C7.94792 215.562 7.78125 215.917 7.59375 216.25C7.32292 216.75 6.9375 217 6.4375 217H1.4375ZM14.3125 200.938H24.7188C23.8854 198.854 23.0417 196.781 22.1875 194.719C21.3333 192.635 20.4792 190.552 19.625 188.469C18.75 190.552 17.8646 192.635 16.9688 194.719C16.0938 196.781 15.2083 198.854 14.3125 200.938Z" fill="#2C0099"/>
<path d="M67.9062 217C67.1771 217 66.75 216.625 66.625 215.875C66.5625 215.458 66.5 215.042 66.4375 214.625C66.3958 214.188 66.3542 213.76 66.3125 213.344C66.3125 213.281 66.2917 213.177 66.25 213.031C66.2083 212.865 66.1354 212.781 66.0312 212.781C65.9479 212.781 65.8542 212.833 65.75 212.938C65.6667 213.021 65.6042 213.094 65.5625 213.156C64.1875 214.74 62.5104 215.875 60.5312 216.562C58.5729 217.25 56.5625 217.594 54.5 217.594C52.8125 217.594 51.1771 217.302 49.5938 216.719C48.0312 216.115 46.7396 215.198 45.7188 213.969C44.7188 212.74 44.2188 211.177 44.2188 209.281C44.2188 206.865 44.2292 204.448 44.25 202.031C44.2917 199.594 44.3125 197.177 44.3125 194.781V189.938C44.3125 189.083 44.7396 188.656 45.5938 188.656H50.4062C51.2604 188.656 51.6875 189.083 51.6875 189.938V194.844C51.6875 196.802 51.6771 198.771 51.6562 200.75C51.6354 202.729 51.6354 204.708 51.6562 206.688C51.6979 208.333 52.2292 209.5 53.25 210.188C54.2917 210.854 55.5625 211.188 57.0625 211.188C58.9375 211.188 60.5312 210.688 61.8438 209.688C63.1562 208.688 64.1562 207.406 64.8438 205.844C65.5521 204.26 65.9062 202.615 65.9062 200.906V189.938C65.9062 189.083 66.3333 188.656 67.1875 188.656H71.9688C72.8229 188.656 73.25 189.083 73.25 189.938C73.25 190.833 73.2396 191.729 73.2188 192.625C73.2188 193.521 73.2188 194.417 73.2188 195.312C73.2188 197.604 73.2292 199.906 73.25 202.219C73.2917 204.531 73.3229 206.833 73.3438 209.125C73.3646 210.208 73.3854 211.302 73.4062 212.406C73.4479 213.49 73.4688 214.583 73.4688 215.688C73.4688 216.562 73.0417 217 72.1875 217H67.9062Z" fill="#2C0099"/>
<path d="M94.5312 202.125C94.5312 202.188 94.7708 202.625 95.25 203.438C95.75 204.25 96.3646 205.25 97.0938 206.438C97.8438 207.604 98.6042 208.802 99.375 210.031C100.167 211.24 100.854 212.312 101.438 213.25C102.021 214.167 102.396 214.76 102.562 215.031C102.667 215.198 102.76 215.375 102.844 215.562C102.948 215.75 103 215.948 103 216.156C103 216.552 102.812 216.792 102.438 216.875C102.083 216.958 101.76 217 101.469 217H95.4688C95.0312 217 94.6771 216.802 94.4062 216.406C93.5521 215.198 92.7396 213.948 91.9688 212.656C91.2188 211.365 90.4479 210.104 89.6562 208.875C89.5312 208.688 89.4271 208.594 89.3438 208.594C89.2604 208.594 89.0208 208.938 88.625 209.625C88.2292 210.312 87.7708 211.135 87.25 212.094C86.75 213.052 86.2812 213.938 85.8438 214.75C85.4271 215.562 85.1354 216.094 84.9688 216.344C84.6979 216.781 84.3229 217 83.8438 217H79.4688C79.1979 217 78.875 216.958 78.5 216.875C78.125 216.792 77.9375 216.552 77.9375 216.156C77.9375 215.948 77.9896 215.75 78.0938 215.562C78.1979 215.375 78.2917 215.198 78.375 215.031C78.5208 214.781 78.8646 214.219 79.4062 213.344C79.9688 212.448 80.6042 211.427 81.3125 210.281C82.0417 209.135 82.7396 208 83.4062 206.875C84.0938 205.75 84.6667 204.812 85.125 204.062C85.5833 203.292 85.8125 202.865 85.8125 202.781C85.8125 202.635 85.5417 202.135 85 201.281C84.4583 200.406 83.7917 199.365 83 198.156C82.2292 196.927 81.4479 195.698 80.6562 194.469C79.8646 193.219 79.1979 192.135 78.6562 191.219C78.1146 190.302 77.8438 189.729 77.8438 189.5C77.8438 189.104 78.0312 188.865 78.4062 188.781C78.7812 188.698 79.1042 188.656 79.375 188.656H85.4375C85.8958 188.656 86.2604 188.854 86.5312 189.25C86.6979 189.458 87.0104 189.958 87.4688 190.75C87.9271 191.521 88.4271 192.365 88.9688 193.281C89.5312 194.177 90.0208 194.958 90.4375 195.625C90.875 196.292 91.1354 196.625 91.2188 196.625C91.3438 196.625 91.4583 196.51 91.5625 196.281C92.1458 195.177 92.6562 194.031 93.0938 192.844C93.5521 191.656 94.0729 190.51 94.6562 189.406C94.9062 188.906 95.2917 188.656 95.8125 188.656H100.062C100.354 188.656 100.677 188.708 101.031 188.812C101.385 188.896 101.562 189.125 101.562 189.5C101.562 189.729 101.323 190.281 100.844 191.156C100.385 192.031 99.8021 193.062 99.0938 194.25C98.4062 195.417 97.7083 196.583 97 197.75C96.2917 198.896 95.6979 199.885 95.2188 200.719C94.7604 201.531 94.5312 202 94.5312 202.125Z" fill="#2C0099"/>
<path d="M107.125 178C107.125 176.854 107.552 175.875 108.406 175.062C109.26 174.229 110.26 173.812 111.406 173.812C112.573 173.812 113.594 174.24 114.469 175.094C115.365 175.927 115.812 176.938 115.812 178.125C115.812 179.271 115.385 180.271 114.531 181.125C113.698 181.958 112.698 182.375 111.531 182.375C110.344 182.375 109.312 181.948 108.438 181.094C107.562 180.219 107.125 179.188 107.125 178ZM107.594 196.844V189.938C107.594 189.083 108.021 188.656 108.875 188.656H113.688C114.542 188.656 114.969 189.083 114.969 189.938C114.969 194.229 114.979 198.531 115 202.844C115.021 207.135 115.031 211.427 115.031 215.719C115.031 216.573 114.604 217 113.75 217H108.812C107.958 217 107.531 216.573 107.531 215.719C107.531 212.573 107.542 209.427 107.562 206.281C107.583 203.135 107.594 199.99 107.594 196.844Z" fill="#2C0099"/>
<path d="M139.844 209.812C140.135 209.812 140.354 209.906 140.5 210.094C140.667 210.281 140.802 210.49 140.906 210.719C140.99 210.885 141.156 211.292 141.406 211.938C141.656 212.583 141.885 213.219 142.094 213.844C142.323 214.469 142.438 214.844 142.438 214.969C142.438 215.427 142.073 215.823 141.344 216.156C140.635 216.49 139.781 216.76 138.781 216.969C137.781 217.177 136.833 217.323 135.938 217.406C135.042 217.51 134.406 217.562 134.031 217.562C129.635 217.562 126.208 216.26 123.75 213.656C121.292 211.052 120.062 207.583 120.062 203.25C120.062 200.354 120.625 197.75 121.75 195.438C122.896 193.125 124.542 191.292 126.688 189.938C128.833 188.583 131.406 187.906 134.406 187.906C135.573 187.906 136.833 188.042 138.188 188.312C139.542 188.562 140.729 188.969 141.75 189.531C141.958 189.635 142.125 189.76 142.25 189.906C142.396 190.031 142.469 190.219 142.469 190.469C142.469 190.677 142.417 190.885 142.312 191.094L140.875 194.719C140.646 195.302 140.281 195.594 139.781 195.594C139.573 195.594 139.344 195.542 139.094 195.438C138.406 195.208 137.719 195.021 137.031 194.875C136.344 194.708 135.635 194.625 134.906 194.625C132.385 194.625 130.51 195.417 129.281 197C128.073 198.583 127.469 200.552 127.469 202.906C127.469 205.177 128.042 207.094 129.188 208.656C130.354 210.198 132.156 210.969 134.594 210.969C135.385 210.969 136.146 210.875 136.875 210.688C137.604 210.5 138.333 210.271 139.062 210C139.188 209.958 139.312 209.917 139.438 209.875C139.562 209.833 139.698 209.812 139.844 209.812Z" fill="#2C0099"/>
<path d="M158.281 217.594C155.573 217.594 153.302 216.948 151.469 215.656C149.635 214.365 148.25 212.656 147.312 210.531C146.396 208.385 145.938 206.062 145.938 203.562V203.062C145.979 200.438 146.521 197.969 147.562 195.656C148.625 193.344 150.156 191.479 152.156 190.062C154.156 188.625 156.573 187.906 159.406 187.906C161.156 187.906 162.781 188.24 164.281 188.906C165.802 189.552 167.219 190.438 168.531 191.562C168.677 191.708 168.802 191.781 168.906 191.781C169.156 191.781 169.271 191.521 169.25 191C169.25 190.479 169.323 189.958 169.469 189.438C169.635 188.917 170.052 188.656 170.719 188.656H175.125C175.979 188.656 176.406 189.083 176.406 189.938C176.406 190.833 176.396 191.729 176.375 192.625C176.375 193.521 176.375 194.417 176.375 195.312C176.375 197.604 176.385 199.906 176.406 202.219C176.448 204.531 176.479 206.833 176.5 209.125C176.521 210.208 176.542 211.302 176.562 212.406C176.604 213.49 176.625 214.583 176.625 215.688C176.625 216.562 176.198 217 175.344 217H170.438C169.875 217 169.51 216.823 169.344 216.469C169.177 216.094 169.104 215.656 169.125 215.156C169.146 214.656 169.146 214.208 169.125 213.812C169.125 213.75 169.115 213.646 169.094 213.5C169.073 213.354 169.01 213.281 168.906 213.281C168.823 213.281 168.74 213.312 168.656 213.375C168.594 213.438 168.531 213.49 168.469 213.531C167.01 214.76 165.438 215.75 163.75 216.5C162.062 217.229 160.24 217.594 158.281 217.594ZM161.469 210.938C162.948 210.938 164.312 210.635 165.562 210.031C166.833 209.406 167.823 208.427 168.531 207.094C168.573 207.01 168.667 206.802 168.812 206.469C168.979 206.115 169.062 205.896 169.062 205.812C169.062 205.083 169.052 204.354 169.031 203.625C169.031 202.896 169.031 202.177 169.031 201.469C169.031 201.135 169.042 200.771 169.062 200.375C169.083 199.958 169.073 199.594 169.031 199.281C169.01 199.135 168.927 198.917 168.781 198.625C168.656 198.333 168.562 198.125 168.5 198C167.771 196.688 166.74 195.708 165.406 195.062C164.073 194.417 162.677 194.094 161.219 194.094C159.677 194.094 158.323 194.479 157.156 195.25C155.99 196.021 155.073 197.042 154.406 198.312C153.76 199.562 153.438 200.938 153.438 202.438C153.438 203.938 153.781 205.333 154.469 206.625C155.156 207.917 156.104 208.958 157.312 209.75C158.542 210.542 159.927 210.938 161.469 210.938Z" fill="#2C0099"/>
<path d="M188.156 188.656C188.948 188.656 189.375 189.042 189.438 189.812L189.75 193.375C189.75 193.396 189.771 193.552 189.812 193.844C189.854 194.115 189.927 194.25 190.031 194.25C190.135 194.25 190.24 194.135 190.344 193.906C190.469 193.677 190.542 193.542 190.562 193.5C191.417 191.896 192.458 190.635 193.688 189.719C194.917 188.802 196.469 188.344 198.344 188.344C198.781 188.344 199.333 188.385 200 188.469C200.688 188.531 201.031 188.875 201.031 189.5C201.031 189.812 200.969 190.302 200.844 190.969C200.719 191.635 200.573 192.312 200.406 193C200.26 193.667 200.146 194.177 200.062 194.531C199.979 194.885 199.844 195.167 199.656 195.375C199.49 195.562 199.198 195.656 198.781 195.656C198.573 195.656 198.365 195.646 198.156 195.625C197.969 195.583 197.76 195.562 197.531 195.562C195.885 195.562 194.5 196.083 193.375 197.125C192.25 198.146 191.406 199.406 190.844 200.906C190.281 202.406 190 203.885 190 205.344V215.719C190 216.573 189.573 217 188.719 217H183.875C183.021 217 182.594 216.562 182.594 215.688C182.594 212.458 182.604 209.24 182.625 206.031C182.667 202.802 182.688 199.583 182.688 196.375V189.938C182.688 189.083 183.115 188.656 183.969 188.656H188.156Z" fill="#2C0099"/>
<path d="M217.844 217.75C214.802 217.75 212.146 217.146 209.875 215.938C207.625 214.729 205.875 213.01 204.625 210.781C203.375 208.552 202.75 205.906 202.75 202.844C202.75 199.99 203.344 197.427 204.531 195.156C205.719 192.885 207.396 191.094 209.562 189.781C211.729 188.448 214.271 187.781 217.188 187.781C220.792 187.781 223.615 188.792 225.656 190.812C227.719 192.833 229.115 195.521 229.844 198.875C229.865 198.938 229.875 199.042 229.875 199.188C229.875 199.5 229.792 199.74 229.625 199.906C229.479 200.052 229.281 200.177 229.031 200.281C228.323 200.615 227.573 200.906 226.781 201.156C225.99 201.406 225.219 201.677 224.469 201.969C222.281 202.781 220.083 203.583 217.875 204.375C215.667 205.146 213.479 205.969 211.312 206.844C211.146 206.927 211.062 207.031 211.062 207.156C211.062 207.219 211.083 207.292 211.125 207.375C211.958 208.875 213.104 209.99 214.562 210.719C216.021 211.448 217.583 211.812 219.25 211.812C220.562 211.812 221.781 211.604 222.906 211.188C224.052 210.771 225.177 210.25 226.281 209.625C226.427 209.542 226.573 209.469 226.719 209.406C226.865 209.344 227.01 209.312 227.156 209.312C227.448 209.312 227.667 209.406 227.812 209.594C227.979 209.76 228.115 209.958 228.219 210.188C228.302 210.333 228.458 210.667 228.688 211.188C228.938 211.688 229.167 212.198 229.375 212.719C229.604 213.219 229.719 213.542 229.719 213.688C229.719 213.917 229.656 214.104 229.531 214.25C229.406 214.396 229.26 214.531 229.094 214.656C227.615 215.677 225.812 216.448 223.688 216.969C221.583 217.49 219.635 217.75 217.844 217.75ZM210 202.531C212.104 201.802 214.208 201.073 216.312 200.344C218.417 199.615 220.51 198.885 222.594 198.156C222.073 197.01 221.344 196.01 220.406 195.156C219.49 194.302 218.354 193.875 217 193.875C215.417 193.875 214.104 194.302 213.062 195.156C212.021 196.01 211.25 197.104 210.75 198.438C210.25 199.75 210 201.115 210 202.531Z" fill="#2C0099"/>
<path d="M39.875 43.5L115.456 0L170.375 32V132.15C170.375 133.404 170.375 134.031 170.313 134.558C169.824 138.69 166.565 141.949 162.433 142.438C161.906 142.5 161.279 142.5 160.025 142.5H39.875V43.5Z" fill="#FF71E4"/>
<path fill-rule="evenodd" clip-rule="evenodd" d="M32.875 68.2011L27.875 60L115.375 10L202.875 59.7011L198.375 68.2011L185.375 60V139.201C185.375 147.201 178.245 157 166.375 157H141.875C122.375 157 97.375 146.5 83.875 132C70.375 117.5 67.375 108 64.875 99.5C62.375 91 61.5686 80.545 64.875 70.7011C68.1814 60.8572 74.375 56 74.375 56C82.875 48 99.875 47 110.875 52.5C121.875 58 128.875 65.7011 130.375 70.7011C148.375 70 155.375 71 164.875 79C174.375 87 172.875 100 169.375 104.5C165.875 109 163.732 113.5 153.875 116.5C143.375 119.696 138.968 121.041 135.875 128C133.875 132.5 132.375 139.5 133.59 147.701H164.875C171.375 147.701 175.375 142.201 175.375 137.201L175.875 55L115.375 20L54.875 55V137C54.875 143 60.875 148 64.875 148H102.875C103.375 149 111.062 154.5 117.875 157H64.375C54.875 157 45.875 149.701 45.875 139.201V60.3434L32.875 68.2011ZM125.875 101.701C127.44 100.807 128.991 100.469 132.375 93.701C133.875 90.701 134.875 84.701 133.875 79.701C137.875 79.201 144.228 79.5707 147.875 80.2011C151.847 80.8876 153.799 82.2291 156.375 83.701C158.464 84.8947 159.9 86.8364 160.875 88.201C163.375 91.701 163.652 96.3574 161.875 99.201C159.375 103.201 157.875 104.701 153.875 106.701C149.47 108.903 147.875 108.201 138.875 112.201C129.875 116.201 124.875 121.5 124.375 146.5C117.875 145.5 117.875 145.201 110.875 141.701C103.875 138.201 94.375 131.201 88.875 124.701C83.5152 118.367 80.81 114.646 78.875 110.5C75.375 103 72.875 98.5 71.875 87.5C70.875 76.5 75.0665 67.9021 79.875 63.2011C84.6835 58.5 91.375 57 101.375 59C111.375 61 116.375 66.5 118.875 69.7011C121.375 72.9021 123.33 76.5229 123.875 78.7011C124.375 80.701 125.375 82.701 124.875 87.201C124.587 89.7895 123.375 91.701 121.875 93.201C119.413 95.6633 115.493 94.9371 114.375 92.701C113.875 91.701 113.277 90.8489 114.375 88.7011C115.352 86.7898 117.182 86.3018 119.375 82.7011C121.44 79.3103 121.375 75.201 119.375 73.201C111.875 76.201 110.375 78.701 108.375 81.201C107.353 82.4787 105.375 85.701 104.875 88.7011C103.951 94.2447 106.017 97.0714 107.375 98.701C109.875 101.701 111.943 102.661 114.375 103.201C118.875 104.201 122.375 103.701 125.875 101.701Z" fill="#2C0099"/>
</svg>
